<mxfile host="app.diagrams.net" modified="2023-04-24T00:10:09.157Z" agent="Mozilla/5.0 (Macintosh; Intel Mac OS X 10_15_7) AppleWebKit/537.36 (KHTML, like Gecko) Chrome/112.0.0.0 Safari/537.36" etag="Wi7k18ATwRCNXMGV2BUM" version="21.1.8" type="device">
  <diagram name="Page-1" id="e2OG8YVAVIMXFCKYnt1o">
    <mxGraphModel dx="1674" dy="756" grid="1" gridSize="10" guides="1" tooltips="1" connect="1" arrows="1" fold="1" page="1" pageScale="1" pageWidth="850" pageHeight="1100" math="0" shadow="0">
      <root>
        <mxCell id="0" />
        <mxCell id="1" parent="0" />
        <mxCell id="ifZcxbc6ViH0zZD_RYen-2" value="" style="rounded=0;whiteSpace=wrap;html=1;strokeWidth=2;fillColor=#d5e8d4;strokeColor=#82b366;" parent="1" vertex="1">
          <mxGeometry x="80" y="120" width="600" height="840" as="geometry" />
        </mxCell>
        <mxCell id="ifZcxbc6ViH0zZD_RYen-3" value="&lt;font size=&quot;1&quot; face=&quot;Verdana&quot; style=&quot;&quot;&gt;&lt;b style=&quot;font-size: 41px;&quot;&gt;Whitepaper Avenue&lt;/b&gt;&lt;/font&gt;" style="rounded=0;whiteSpace=wrap;html=1;fillColor=#A34141;" parent="1" vertex="1">
          <mxGeometry x="90" y="130" width="580" height="150" as="geometry" />
        </mxCell>
        <mxCell id="ifZcxbc6ViH0zZD_RYen-4" value="&lt;font size=&quot;1&quot; style=&quot;&quot;&gt;&lt;span style=&quot;font-size: 48px;&quot;&gt;60 sats&lt;/span&gt;&lt;/font&gt;" style="text;html=1;strokeColor=none;fillColor=none;align=center;verticalAlign=middle;whiteSpace=wrap;rounded=0;" parent="1" vertex="1">
          <mxGeometry x="200" y="860" width="360" height="50" as="geometry" />
        </mxCell>
        <mxCell id="UcLLwD-ZdjpOMd3_gfj--1" value="" style="shape=image;verticalLabelPosition=bottom;labelBackgroundColor=default;verticalAlign=top;aspect=fixed;imageAspect=0;image=data:image/png,iVBORw0KGgoAAAANSUhEUgAAAyAAAAMgCAAAAAD+G1m0AAAABGdBTUEAALGPC/xhBQAAACBjSFJNAAB6JgAAgIQAAPoAAACA6AAAdTAAAOpgAAA6mAAAF3CculE8AAAAAmJLR0QAAKqNIzIAAAAJcEhZcwAAAGAAAABgAPBrQs8AAAAHdElNRQfnBBgAByNKnr+fAAAvI0lEQVR42u2de5hkVXX2p86pnqGHYRgYGJE7uQKCiHxqSEAQFbmo+HkBRtFHRMLzgMoHGsWAEsRHIkYSzaN+fo8x0YhiFEQTUS5Gg+AnkUsERFGDUYMyAwPM9Mww3XXO7nRVdXVXdVft1T2r3lp7135/f0QyU3uddd61f3Pq1n2WTBJCerLEugFCQoaCEOKBghDigYIQ4oGCEOKBghDigYIQ4oGCEOKBghDigYIQ4oGCEOKBghDigYIQ4oGCEOKBghDigYIQ4oGCEOKBghDigYIQ4oGCEOKBghDigYIQ4oGCEOKBghDigYIQ4oGCEOKBghDigYIQ4oGCEOKBghDigYIQ4oGCEOKBghDigYIQ4oGCEOKBghDigYIQ4oGCEOKBghDigYIQ4oGCEOKBghDigYIQ4oGCEOKBghDigYIQ4oGCEOKBghDigYIQ4oGCEOKBghDigYIQ4oGCEOKBghDigYIQ4oGCEOKBghDigYIQ4oGCEOKBghDigYIQ4oGCEOKBghDiQS3IkiEHff6jkdcPHQpiHLC2PgXBQkGMA9bWpyBYKIhxwNr6FAQLBTEOWFufgmChIMYBa+tTECwUxDhgbX0KgoWCGAesrU9BsFAQ44C19SkIFgpiHLC2PgXBQkGMA9bWpyBYKIhxwNr6FAQLBTEOWFufgmChIMYBa+tTECwUxDhgbX0KgoWCGAesrU9BsFAQ44C19SkIFgpiHLC2PgXBQkGMA9bWpyBYKIhxwNr6FAQLBTEOWFufgmChIMYBa+tTECwUxDhgbX0KgoWCGAesrU9BsFAQ44C19SkIFgpiHLC2PgXBQkGMA9bWpyBYKIhxwNr6FAQLBTEOWFufgmChIMYBa+tTECwUxDhgbX0KgoWCGAesrU9BsAQviLY+Gm3/1htgyaif1Zyfrn7oDaKJXRDpCsH5KeuH3iAaCpL2/MT6oTeIhoKkPT+xfugNoqEgac9PrB96g2goSNrzE+uH3iAaCpL2/MT6oTeIhoKkPT+xfugNoqEgac9PrB96g2goSNrzE+uH3iAaCpL2/MT6oTeIhoKkPT+xfugNoqEgac9PrB96g2goSNrzE+uH3iAaCpL2/MT6oTeIhoKkPT+xfugNoqEgac9PrB96g2goSNrzE+uH3iAaCpL2/MT6oTeIhoKkPT+xfugNoqEgac9PrB96g2goSNrzE+uH3iAaCpL2/MT6oTeIhoKkPT+xfugNoqEgac9PrB96g2goSNrzE+uH3iAaCpL2/MT6oTeIhoKkPT+xfugNoqEgac9PrB96g2goSNrzE+uH3iAaCpL2/MT6oTeIhoKkPT+xvnWD6A1k3r9w/w70+WtvoDPs8xPrqwskHrC03voOTxREBwUBr6cgOtDzE+urCyQesLSeguhAz0+sry6QeMDSegqiAz0/sb66QOIBS+spiA70/MT66gKJByytpyA60PMT66sLJB6wtJ6C6EDPT6yvLpB4wNJ6CqIDPT+xvrpA4gFL6ymIDvT8xPrqAokHLK2nIDrQ8xPrqwskHrC0noLoQM9PrK8ukHjA0noKogM9P7G+ukDiAUvrKYgO9PzE+uoCiQcsracgOtDzE+urCyQesLSeguhAz0+sry6QeMDSegqiAz0/sb66QOIBS+spiA70/MT66gKJByytpyA60PMT66sLJB6wtJ6C6EDPT6yvLpB4wNJ6CqIDPT+xvrpA4gFL6ymIDvT8xPrqAokHLK2nIDrQ8xPrqwskHrC0noLoQM9PrK8ukHjA0noKogM9P7G+ukDiAUvrKYgO9PzE+uoCiQcsracgOtDzE+urCyQesLSeguhAz0+sry6QeMDSegqiAz0/sb66QOIBS+spiA70/MT66gKJByytpyA60PMT66sLJB6wtJ6C6EDPT6yvLpB4wMLtP0ZXK9eLJ6g8furzE+urCzBgKFJ/1neYGvb5URBwwOh8KQh2fhQEHDA6XwqCnR8FAQeMzpeCYOdHQcABo/OlINj5URBwwOh8KQh2fhQEHDA6XwqCnR8FAQeMzpeCYOdHQcABo/OlINj5URBwwOh8KQh2fhQEHDA6XwqCnR8FAQeMzpeCYOdHQcABo/OlINj5URBwwOh8KQh2fhQEHDA6XwqCnR8FAQeMzpeCYOdHQcABo/OlINj5URBwwOh8KQh2fhQEHDA6XwqCnR8FAQeMzpeCYOdHQcABo/OlINj5URBwwOh8KQh2fhQEHDA6XwqCnR8FAQeMzpeCYOdHQcABo/OlINj5URBwwOh8KQh2fhQEHDA6XwqCnR8FAQeMzpeCYOdHQcABo/OlINj5URBwwOh8KQh2fhQEHDA6XwqCnR8FQQesRXn/D85PmQ96AyQfsBLtFYLzU+bDgMEBK6EgxvNjwOCAlVAQ4/kxYHDASiiI8fwYMDhgJRTEeH4MGBywEgpiPD8GDA5YCQUxnh8DBgeshIIYz48BgwNWQkGM58eAwQEroSDG82PA4ICVUBDj+TFgcMBKKIjx/BgwOGAlFMR4fgwYHLASCmI8PwYMDlgJBTGeHwMGB6yEghjPjwGDA1ZCQYznx4DBASuhIMbzY8DggJVQEOP5MWBwwEooiPH8GDA4YCUUxHh+DBgcsBIKYjw/BgwOWAkFMZ4fAwYHrISCGM+PAYMDVkJBjOfHgMEBK6EgxvNjwOCAlVAQ4/kxYHDASiiI8fwYMDhgJRTEeH4MGBywEgpiPD8GDA5YCQUxnp91wNaYbxDw/T/Q528NBQFjLQj6CoE+f2soCBgKkvb8xPqhN4iGgqQ9P7F+6A2ioSBpz0+sH3qDaChI2vMT64feIBoKkvb8xPqhN4iGgqQ9P7F+6A2ioSBpz0+sH3qDaChI2vMT64feIBoKkvb8xPqhN4iGgqQ9P7F+6A2ioSBpz0+sH3qDaChI2vMT64feIBoKkvb8xPqhN4iGgqQ9P7F+6A2ioSBpz0+sH3qDaChI2vMT64feIBoKkvb8xPqhN4iGgqQ9P7F+6A2ioSBpz0+sH3qDaChI2vMT64feIBoKkvb8xPqhN4iGgqQ9P7F+6A2ioSBpz0+sH3qDaChI2vMT64feIBoKkvb8xPqhN4iGgqQ9P7F+6A2ioSBpz0+sH3qDaChI2vMT64feIBoKkvb8xPqhN4iGgqQ9P7E+usHYUZ+/cP8Pcbny+Nr1sUNBjAOW1ltvcApCQUwDltZbb3AKQkFMA5bWW29wCkJBTAOW1ltvcApCQUwDltZbb3AKQkFMA5bWW29wCkJBTAOW1ltvcApCQUwDltZbb3AKQkFMA5bWW29wCkJBTAOW1ltvcApCQUwDltZbb3AKQkFMA5bWW29wCkJBTAOW1ltvcApCQUwDltZbb3AKQkFMA5bWW29wCkJBTAOW1ltvcApCQUwDltZbb3AKQkFMA5bWW29wCkJBTAOW1ltvcApCQUwDltZbb3AKQkFMA5bWW29wCkJBTAOW1ltvcApCQUwDltZbb3AKQkFMA5bWW29wCkJBTAOW1ltvcApCQUwDltZbb3AKQkFMA5bWW29wCkJBTAOW1ltvcApCQUwDltZbb3AKQkFMA5bWW29wCkJBTAOW1ltvcApiLEjqSAOqCOtHlfcPke4/sto6oMihIErE/Rt4feKHgiihIMMNBVFCQYYbCqKEggw3FEQJBRluKIgSCjLcUBAlFGS4oSBKKMhwQ0GUUJDhhoIooSDDDQVRQkGGGwqihIIMNxRECQUZbiiIEgoy3FAQJRRkuKEgSijIcENBlFCQ4YaCKKEgww0FUUJBhhsKooSCDDcURAkFGW4oiBIKMtxQECUUZLihIEooyHBDQZRQkOGGgiihIMMNBVFCQYYbCqKEggw3FEQJBRluKIgSCjLcUBAlFGS4MRdE2gBa0DegCR3rfKPvL/UBogO2xjrf6PtLfYDogK2xzjf6/lIfIDpga6zzjb6/1AeIDtga63yj7y/1AaIDtsY63+j7S32A6ICtsc43+v5SHyA6YGus842+v9QHiA7YGut8o+8v9QGiA7bGOt/o+0t9gOiArbHON/r+Uh8gOmBrrPONvr/UB4gO2BrrfKPvL/UBogO2xjrf6PtLfYDogK2xzjf6/lIfIDpga6zzjb6/1AeIDtga63yj7y/1AaIDtsY63+j7S32A6ICtsc43+v5SHyA6YGus842+v9QHiA7YGut8o+8v9QGiA+6JK11ROOfKKSbd1P9butm/a/5V/e8a/+Pcdh/GOt/o++vfxOMMCB1wL5wbu/sLHzj3tBOOPfoFJ5/xfz507QPl7F+WP772Q+evPekFRx974ulv+cAX7h6jIGb99W3ikQaEDng+ZVmU665963NGs0o7+Us3FtMePH5C1vF32fLnnH/9+vqFZPGiWOcbfX99n39kAaEDnk/5yKdfsjLPqpVOsupHp59kuavyuX+XVUd2PvFT6ynI4Pvr+/wjCwgdcCdlrfb9N62udCPLL2wJ8ra86yMqq998x0TNlYs6onW+0ffX1/lHGBA64E7Gv3XiDln33Z+v+HZLkFtGuz+kku1w8rcnFncVsc43+v76Ov8IA0IHPIubLO596UjXfV+tZiNH3NB6G8sVX3v2SF6tdDVp5OX3Fou5hljnG31/fZt/pAGhA57FPf5nO+ZdN32280uuuHtr6yX6lCC18buuOH5V96tIdfm7NiziImKdb/T99W3+kQaEDrhFrbjloLoLc194ZNXlp1y3ydU/CZl5bOO/3JNfPqWbUFmWHfivxYI/GrHON/r++jT/aANCBzyN23LJjl2uHlm+2wU/qRXdlxS1n16wusuiPN/xPVtqkeQbfX/9mX+8AYEDbnwSPlkWvz2xqx4r3vZfk5M9rgWNz9d/cd7yeQun/iA7eV39k3fnxI9GrPMNff5if8r1+hMc9aMtXxH6H1UeXyhfFrWpjVzef3DW5clS9bi7Cv/+dq72g+NGurzrmz/zgamlRa1WE16xS+dXUf79auv9o5y/2J9yvfoEtf/Ca+trz8+7uCxuOOY5nyjcnft2uXxkKz863v4FrO4Uk09dtcv8lyJ5tu8Pytonjjjmm5ovagUAWpDoryDDLci/rMzy6jv/7Wl5Pt+Pw+8pFtRBUd59aLdXInve9o6pP175ddGxoKEg6Qri3K2rsmzKkBX53CdYWVY9dUOxsJ3tXLnhFVmXa8hotf40bfV3y8mIFaEg6QpS/GCPHt8ZqeQj529d+K52bttbelWqVPa8p1zct0+CgoKkKohzP9q/x7dKsnzZJROLeWbkyomL8qyXbPv/ZIHXohChIKkKUjx0UK89nY28e2Kx/+hPvKP3NeSQX8X7OoSCpCrIuiPyrJcg52xb1Pep6rjxP+1pSPW56xb2ej9AKEiagtQ2HNN7P5+xdTsacdtOH+lVsXLsE7FeQihIioI4t/GkvNcTrPylY9vx771zbvMJvV6GVKov3xypIRQkRUGKzWt7XT+y6nFPbF8nzj1+dO/XIa/fpp2kDRQkRUHGz+39ntNzHtnO1wvOlQ8/q6cg2VsX+vXFsKAg6QlSTlxc7bWNs4N/oWim+Pkf9Kq8pHLJeIzPsihIeoLUrlza6/qRrfnRIn9kth1XFvft1usSsmTkwxSEgoQvSFl+bFnvJ0L5+zRvyJbF5b3fycqWfbIWnyIUJDFBXPG9HXu/lK5URv9DcwW5Z4fetbNsxb9rpzl4KEhigkyW75t6PdCb7DpFM8V1I5mndv4B7TQHDwVJTBBXfMa3hytrfqVoxv3qab7i1au10xw8FCQ1QdyWl/bexNnSaxWvE1xZ/pPnNUj+is3aaQ4eCpKYIFPbeOw1ntcJZ29RNFPbfGbv1yD5aZsj/FYvBUlMkPqPN/2J72nQqU9s5zVkqvKTr/I9wzpqQ4RfWaQgyQkyvrbq2cVZftJj2ylI8djxIxVf6TOe4hWEgoQuSPHB3PsqvZId89vt+PGNqevHb46q+CpnlepfxfezhRQkMUEmv7uiIvHs/1q8IGXx0BG5UDff6fboXoVQkLQEKTcdlImC5Af/dLH72BU/OjCTKmfZMzZSEAoSsCCudmEuC5Ll+9+1uI1cFnfuK9edqnwRBaEgAQsyeefyBezjrJLt8d0ur0Nc69eQzvkr54pb95CeXzUrr7gnsh9PpyBJCTJxwoL28dSTodW3zHk9Xb/rba1+y9vSzb2JlCtuWr2Q60edkxXfFraAgqQkiLthafcrxvwnWYffN/OhRePeB2M//Id3n37s4QcfdNixp1/02XvHXONXU08/ovxhlxfo3ZUZuVE70cFCQRISxI0fPd+E+u0K5v/i0TOemP2VumXx8Kde8fS2D0+WVKp7vfLTvylmf/WJe+y1c7+mmFW734zn2Lh+spCCpCTILXM+IsyyHZ819YJjzalz3oDKLx13rRsSTpa3vHqnqb/vvPHz1P+/4jXfqrnWyxK37c87Lk5Zpfq63ab+57C5dx3Jln47qudYFCQlQU6Z+3xn9HOPn7Pfn3xv23vaPgLP8h3+pvX0ytXGv/Lcnu97VY/8aq310Z+buGpZ2+PypZeN33bkvuc98Zm5NwVd8qqoPi0cekG099fQJwA+vlC/LQr3s+VzdvjSj009Tdo6tcnH/2rp7IuGpR9vfZzn3B0vGKn2/gUP1ZEX3dW6R0458ZG2Z1lLr5ooy4mttaL2kbk/37vjQ+2XkOA3oDJ/+P1LtIKoAwAPaHAboCzf3/myIBt5/0TrL90nlmfTr0SqV7b+hS83XbxTRWDlX4y17pEzccXSVomd/t/MK43isrzzB7SyDw6TIP29Dfd29Ac/gPGABrcBytohnS8kqn820Xbn2i+sau7u7LzWbx9xDx61gA8Vs+c/2BTElRPnTj9TW3VNOfse2Pj5WYch+RHtT7Gs89fuDwoCHtAAN8B9HW9W5dWztnW8XP6XXevXkJHjm/c9cEV5816zL0uaLmSNF/NZ53OubJ+bpz1zYy9uvLLZ7esd32ufeGPnu2RLH2j7pNE6f+3+oCDgAQ1uA5RXdr6AeM3Wzh/8mPhO/edlD/j19EsK94WdZjwYOest55133rk759kp59X/4/c7LyIrvzh9Dan9cp+pNXvcNudl+JZXdR75KkdB+gUF6duAXPuNbPPs+Cfnvd165375Djc09rYry8/s0PZv/vrGH+6TZY2P+crODV/Jd/zHlhL/vLR6wN1z36VyG1/ccQ05qaAg/YKC9G1AT61u/1f/eY/O/8CuvP/A85p7t6xdvyJbsCBZvuPXprd87ZwDfzz/rp3ukSPaH7/7NgrSLyhI3wZ0b/sr6726f6H9ofXN/y3u2LW19+svPJqClPtl+c2T9cvLK+e9Vl/97833sspHH+r2c7XFA3u2f0Z5PwXpFxSkbwP67OzTnHz0G92/M9h682ndgS2TVqyeYs919T+sHb5mzbfr/1GcMTr38/H84Eear+1dt1vvTD1j++e2D9qzqylIv6Ag/RqQe/fsps7f2ePm5c0/LcfXznz35LJanebfTtSalwn31C+ue/3KvON7K9kZNc8X2d1k+fa2b3xdQkH6BQXp14DKV8/u5meNeR/qPje79y/v+oCyKH/5ps5vBo9c4/1Jj2LTM2cEyU4PJ3/t/qAg4AENagO44o9mn2B9y/dtKFeu23f2eyeX93qUm7i6/XV8JTvgUW9Vd9Ps22JHzT7SOn/t/qAg4AENagO48ZkPL/I3eH91Qlm8q23fX977ce7aHTuuIRf7f+1Vbe3MIw+a+YqLef7a/UFBwAMa1AZwm5/e2p47/9j7hfPilzvPXhmy99W/jNj8lKP+s4Qz1P+gdkXHZ+qrH3beJ1n379R6krX37F1CrfPX7g8KAh7QoDaA27SqtZHP8f9LX17Utunz926eYmNjRblxrP7/bB4b29p8q6rcdES7IPnF3i+yF8VZrZf+q2d/Sa91/tr9QUHAAxrUBnBPTn8xN9vhfr8gGzt+Q/sOK6bYpflB4UErptnrdT+pK+LcP7Z9Qp5le2zy/qRHed9o6xq2KZj8tfuDgoAHNLANsGnn6X388sL/A0ufnf8V3tYn6bMy7HZbo8iGNR1v9V7t/2HB2snTD9xl9l006/y1+4OCgAc0qA3gNk/fPTC73vtKYdKdtABB8uwZT9b/qHhJx+Ne5hek+HLzOVa2hk+x+gUF6deAtk5v7738n4GU67r8jNQ8QSqV6jcbf3R+x+NWPeqvvWmPpnwHzN403Tp/7f6gIOABDWoDuPFDm5v4zf4nWO4rlYUJ8pH6H5Xv7Xhc9jV/7fKNzbe9Dpt9FWSdv3Z/UBDwgAa1AVz5wuYmvs7/NKi8YGGCZH/fePRFnQ98h9DFl5pPsY7nV036BQXp04CcO6v5HpZw94/yqIUJsuLn9T8qTu984LFCF+sbd6DOzqEg/YKC9GlAzn2wsTefLfzSnbGnL0CQLBu5qPEsaesfdr6i33uLXz93WONhH6Yg/YKC9GlAbvKGxttP5wh36PjVst6C7DsjyIqLtjY+B/l+5xcWlyx7WLg+vbnxuBspSL+gIH0b0MP1X/qT/a3wqLuynoIUH/9gkys/9bPmR+vjb5j76HuEK8hV9QXV31KQfkFB+jag8sCpzZnfLjzqm70FKae/jFWWxfSXs25dPve3+t4sXEG+U19wUI2C9AsK0rcBuT+vVqqHPyU86tregszjN4fMe/BXBEG2HppXq5cU/Lp7v6AgfRtQOXbJ8057QLoT8xcrCxfkLfNvl3ut8BSreOC0Iy/dWvIK0i8oSD8HtIDfq37tIgRZ98zKkjmPvF4+ROcjrPPX7g8KAh6Q9QaYy42LEKS8fXSuILcs9t4G1vlr+6Mg4AFZb4C53Ol5kf7R9ze5/OMPFI3bsLmz5v7m97ulp3Ch5a/tj4KAB2S9Aeby69GeghT7tT4GqS6/YHPjUnHnDp0PHP31Yu/9YZ2/tr+hF0S6f4h0fwcpwIpyANL9J7T3l5jL2F49BZn9oLCSZRc2fhXQUwd2PC7bZ2zggqDvv6GcLxq4IOoGlf/ChPYvVPn83oK0fxdr+YONP1rbKchxbtCCoPOxPr7Yn/Hx5QaHTBD39oUJkv1d4486v82bvXMhb5Qt6vyt87E+vtif8fHlBodNkK8uUJDGz4O493Q+8Ot9z886H+vji/0ZH19ucMgEKdftvCBBmj9RWL6t43G7PN73/KzzsT6+2J/x8eUGh02Q8mXVhQhyWOMnd8sXdbzN+78Xf/9aCqLsz/j4coNDJohzn++8wVq9iaWN3+5e7ltptFR/E2vN/298DrJh9/aHVq5Z/C3QKYiyP+Pjyw0OmSCTk5vaf2QqW75qiqc1Pwc5ZFWDXXb73Tf/Z/P3Yn227f7qlXyvzbyCDBoKMvAzKi5uv4RcumWK5sZ3W6bZvM2V9fdzy7FntV9s8vc6XkEGDQUZ+BmVv94lm1Xkcs8jJy7reDa22yOA/KzzsT6+2J/x8eUGh0+Q8pK2l+m9BXHllzq+lpJdutjvYS3k/K3zsT6+2J/x8eUGh06QycnHDljAFcRN/H37r5jL8t/ZsPgnWBRE3Z/x8eUGh1CQ4p9GOgVx0/cfbH1OPvUf7qHXd96CbeTLxeJfolMQdX/Gx5cbHEJByok3tr7Gnr+3/qp8rPk7GjZt3lz/iqIrNz54zdq5v6H0TdvzBIuCqPszPr7c4HAJ0rxUlOsPzVtv8+4yxW6N37lbHLrrrv/a+I/XLs3m/CBI9szpG7C5RX4bi4Io+zM+vtzgEAlSlg9OvxFV3L2m3YDWJ+lZdmPjca+a+1F7vuaH0zed+s1PF3cloSDK/oyPLzc4TIL8x++d3bwOFOU3VuaLEGTFjWVDEFc783fu7Wt+1vlYH1/sz/j4coPDIogriu/vmS27fvoCUH5+xeynIcvW1X8fVrFflt3U+I9XdupRXfGl5gv0ovzyssred0ws4lkWBVH2Z3x8ucGhEaR20+7VrLL3Q9O7u7h2lxlBqq89c4o3TSlzQv1/z9q/U5BVXy2bgtR+vleeZbvf0sf8rPOxPr7Yn/Hx5QaHQxBX1r60S+PV9nFj49Mvt//tgLm/N7ELWSXf/9bp33Plnjym8Ue7frVc8DWEgij7Mz6+3OCQCFL79Iq8+YHfn45P/1H58xcuwJDqi35RTvtQO7vx+Dxb+Q8UZEBQkEGcxNTLir+e+a3u1ctqrSvC5vevzLLMY0eWrbxiS6vIxKUtn7LRv60tUBEKouzP+Phyg0MhyMQVS2c+F8+X/fX0q2xX1H54wlLfVWTZyffMPJsqPjSyZMab6l/W+pOfdT7Wxxf7Mz6+3GD8grhy2ztH2i8UI1eON7f91P8pvnF0de6ngtNXmjw7+oYZDdy2vxxpf1R20cSCvnlCQZT9GR9fbnAIBBk7u2NvV/KRd2ydeYZUbLv9jFXdnl2tev3t40Xrydjklgs7v5q1JDtn60KeZVEQZX/Gx5cbjF2Qsnzi1LnfG8mqr36s9dXD+hcTH7t67X7VqT/OllSW1B+aVfd/3ec31P+meaEpykdfOfcik2Wnbyrln6CiIMr+jI8vNxi7IG7DifOfQWX5oXe3PUMqy2LLj6+57I0nHXn4s4888czLvvjglqJo/+u7ntHllUr15Mflt3spiLI/4+PLDUYuSLnu6Pm/xWRKkDW3tr+EmP66u3OtS0LnpcF9Z/esMt+y7PnrS+m7ixRE2Z/x8eUG4xbE/fa51S7/+Gf73FFbzJcOyzv27vZCPn/eo9KTLAqi7M/4+HKDMQviJide3WVjZ9kf3lcs8scD7/vdLp+YZNmp0veyKIiyP+Pjyw3GLMik++ZIpcs//If/52L9mCx/dki394JHbqQg2P6Mjy83GLMgrnxNl12d/fF/F4v+BT6u/O8ju33qfprwaQgFUfaHPkFtANL9RaT7U9hukC37dPlH/0WPLvr60WDdC7u8nDlgm/L8lfdnUd/AaMD3Z1kswQsSdX/lIyvnv2w45Ynt+P1vk/VryGMvmy/Izuv9q9AbPOgreB+gIMj+3Pp5v8o9f8PG7fvtC3U2vrY69z3jVY/pzp+CCP2rC1CQ3rjx35vzqiF/6za3fReQOuXW86pzPpT/gwnd+VMQoX91AQrSm9Kd3fm6eul7FvPjsl0Yv6TzdUh2rvJdLAoi9K8uQEF6U7ofjLYJko18uLb9l48GtfErOt44Hr2LgkChINj+am+f+S77ksro/1Xq0aj4seUz15Cs+q6a8m1eCiL0ry5AQXyUm9fOPCfa6fOL//ijS8XiczOv/PPXbdV+1YSCCP2rC1AQP09duWtWp/q/vtenUypuOyKvf3Ux2/XD4+pv81IQoX91AesNGHp/rnjkk2948ckX3jQ+oS01TVEbv/mCk48/85PrC/n3WVtvcOv5a6EgkQ9Qe/4UROhfXSDwDRh6f2isN3js+VKQyAeoPX8KIvSvLhD4Bgy9PzTWGzz2fClI5APUnj8FEfpXFwh8A4beHxrrDR57vhQk8gFqz5+CCP2rCwS+AUPvD431Bo89XwoS+QC1509BhP7VBQLfgKH3h8Z6g8eeLwWJfIDa86cgQv/qAoFvwND7Q2O9wWPPl4JEPkDt+VMQoX91gcA3YOj9obHe4LHnS0EiH6D2/CmI0L+6QOAbMPT+0Fhv8NjzpSCRD1B7/hRE6F9dIPANGHp/aKw3eOz5UpDIB6g9fwoi9K8uEPgGDL0/NNYbPPZ8KUjkA9SePwUR+lcXCHwDht4fGusNHnu+akGk+3dUjO//gO7PegPJhuvu/yFRUeavPT5awODvMBU6oQuiFgy9ASnIcBP6Bqcgyv6U65Mn9A1OQZT9KdcnT+gbnIIo+1OuT57QNzgFUfanXJ88oW9wCqLsT7k+eULf4BRE2Z9yffKEvsEpiLI/5frkCX2DUxBlf8r1yRP6Bqcgyv6U65Mn9A1OQZT9KdcnT+gbnIIo+1OuT57QNzgFUfanXJ88oW9wCqLsT7k+eULf4BRE2Z9yffKEvsEpiLI/5frkCX2DUxBlf8r1yRP6Bqcgyv6U65Mn9A1OQZT9KdcnT+gbnIIo+1OuT57QNzgFUfanXJ88oW9wCqLsT7k+eULf4BRE2Z9yffKEvsEpiLI/5frkCX2DUxBlf8r1yRP6Bqcgyv6U65Mn9A1OQZT9KdcnT+gbnIIo+1OuT57QNzgFUfanXJ88oW9wCqLsT7k+eULf4BRE2Z9yPfwErZHOX7r/hfb+Itr7b0jH194/ReofLah0/xPt/WcoiIA2H21+wd+BSdm/dj7wO5ShA4odcP4URAkFMQacPwVRQkGMAedPQZRQEGPA+VMQJRTEGHD+FEQJBTEGnD8FUUJBjAHnT0GUUBBjwPlTECUUxBhw/hRECQUxBpw/BVFCQYwB509BlFAQY8D5UxAlFMQYcP4URAkFMQacPwVRQkGMAedPQZRQEGPA+VMQJRTEGHD+FEQJBTEGnD8FUUJBjAHnT0GUUBBjwPlTECUUxBhw/hRECQUxBpw/BVFCQYwB509BlFAQY8D5UxAlFMQYcP4URAkFMQacPwVRQkGMAedPQZRQEGPA+VMQJRTEGHD+FEQJBTEGnD8FURK9IOD+9QGA+5cnjL2/hbo/JdL9TdDHD/4GOuD5qkH3jx4guj/0BrU+vpgPOuDBjTrM/tEDRPeH3qDWxxfzQQc8uFGH2T96gOj+0BvU+vhiPuiABzfqMPtHDxDdH3qDWh9fzAcd8OBGHWb/6AGi+0NvUOvji/mgAx7cqMPsHz1AdH/oDWp9fDEfdMCDG3WY/aMHiO4PvUGtjy/mgw54cKMOs3/0ANH9oTeo9fHFfNABD27UYfaPHiC6P/QGtT6+mA864MGNOsz+0QNE94feoNbHF/NBBzy4UYfZP3qA6P7QG9T6+GI+6IAHN+ow+0cPEN0feoNaH1/MBx3w4EYdZv/oAaL7Q29Q6+OL+aADHtyow+wfPUB0f+gNan18MR90wIMbdZj9oweI7g+9Qa2PL+aDDnhwow6zf/QA0f2hN6j18cV80AEPbtRh9o8eILo/9Aa1Pr6YDzrgwY06zP7RA0T3h96g1scX80EHPLhRh9k/eoDo/tAb1Pr4Yj7ogAc36jD7Rw8Q3R96g1ofX8wHHfDgRh1m/+gBovtDb1Dr44v5oAMe3KjD7B89QHR/6A1qfXwxH3TAgxt1mP2jB4juD71BrY8v5oMOeHCjDrN/9ADR/aE3qPXxxXzQAQ9u1GH2jx4guj/0BrU+vpgPOuDBjTrM/tEDRPeH3qDWxxfzQQc8uFGH2T96gOj+0BvU+vhiPuiABzfqMPtHDxDdH3qDWh9fzAcd8OBGHWb/6AGi+0NvUOvji/mgAx7cqMPsHz1AdH/oDWp9fDEfdMCDG3WY/aMHiO4PvUGtjy/mgw7YekCh9y/dPwM9H+n+JBXh77Xnh+5Pe38VCmLcP/wOSeDja+tb5yOen7qA8QZDHx/dPwWxzUc8P3UB4w2GPj66fwpim494fuoCxhsMfXx0/xTENh/x/NQFjDcY+vjo/imIbT7i+akLGG8w9PHR/VMQ23zE81MXMN5g6OOj+6cgtvmI56cuYLzB0MdH909BbPMRz09dwHiDoY+P7p+C2OYjnp+6gPEGQx8f3T8Fsc1HPD91AeMNhj4+un8KYpuPeH7qAsYbDH18dP8UxDYf8fzUBYw3GPr46P4piG0+4vmpCxhvMPTx0f1TENt8xPNTFzDeYOjjo/unILb5iOenLmC8wdDHR/dPQWzzEc9PXcB4g6GPj+6fgtjmI56fuoDxBkMfH90/BbHNRzw/dQHjDYY+Prp/CmKbj3h+6gLGGwx9fHT/FMQ2H/H81AWMNxj6+Oj+KYhtPuL5qQsYbzD08dH9UxDbfMTzUxcw3mDo46P7pyC2+Yjnpy5gvMHQx0f3T0Fs8xHPT13AeIOhj4/un4LY5iOen7qA8QZDHx/dPwWxzUc8P3UB4w2GPj66fwpim494fuoCxhsMfXx0/xTENh/x/NQFjDcY+vjo/imIbT7i+akLGG8w9PHR/VMQ23zE81MXMN5g6OOj+6cgtvmI56cuYLzB0Me37h+N9v4kwu05xPuHSPf/0N7fQwsFCbx/NLFfwdBQkMD7R0NBhP7RAWjXa4m9fzQUROgfHYB2vZbY+0dDQYT+0QFo12uJvX80FEToHx2Adr2W2PtHQ0GE/tEBaNdrib1/NBRE6B8dgHa9ltj7R0NBhP7RAWjXa4m9fzQUROgfHYB2vZbY+0dDQYT+0QFo12uJvX80FEToHx2Adr2W2PtHQ0GE/tEBaNdrib1/NBRE6B8dgHa9ltj7R0NBhP7RAWjXa4m9fzQUROgfHYB2vZbY+0dDQYT+0QFo12uJvX80FEToHx2Adr2W2PtHQ0GE/tEBaNdrib1/NBRE6B8dgHa9ltj7R0NBhP7RAWjXa4m9fzQUROgfHYB2vZbY+0dDQYT+0QFo12uJvX80FEToHx2Adr2W2PtHQ0GE/tEBaNdrib1/NBRE6B8dgHa9ltj7R0NBhP7RAWjXa4m9fzQUROgfHYB2vZbY+0dDQYT+0QFo12uJvX80FEToHx2Adr2W2PtHQ0GE/tEBaNdrib1/NBRE6B8dgHa9FvP+tffPsK4vHV7IR7p/iPX9P8T5qgugN5gS6/61d1iyrq89fuxQEPB6ChI3FAS8noLEDQUBr6cgcUNBwOspSNxQEPB6ChI3FAS8noLEDQUBr6cgcUNBwOspSNxQEPB6ChI3FAS8noLEDQUBr6cgcUNBwOspSNxQEPB6ChI3FAS8noLEDQUBr6cgcUNBwOspSNxQEPB6ChI3FAS8noLEDQUBr6cgcUNBwOspSNxQEPB6ChI3FAS8noLEDQUBr6cgcUNBwOspSNxQEPB6ChI3FAS8noLEDQUBr6cgcUNBwOspSNxQEPB6ChI3FAS8noLEjbkg1mj7l+5/od+Btvf/kI4v3d8jdsEoCLh/9f4E10dvYApCQVT1KUjYUBAKQkF8/asLUBBVfQoSNhSEglAQX//qAhREVZ+ChA0FoSAUxNe/ugAFUdWnIGFDQSgIBfH1ry5AQVT1KUjYUBAKQkF8/asLUBBVfQoSNhSEglAQX//qAhREVZ+ChA0FoSAUxNe/ugAFUdWnIGFDQSgIBfH1ry5AQVT1KUjYUBAKQkF8/asLUBBVfQoSNhSEglAQX//qAhREVZ+ChA0FoSAUxNe/ugAFUdWnIGFDQSgIBfH1ry5AQVT1KUjYUBAKQkF8/asLUBBVfQoSNhSEglAQX//qAhREVZ+ChA0FoSAUxNe/usCQo81Hun9IRXv/D+P7h0gbHH3/FLRgFEQAnL8632G/wqCPL/aHHmDsgPNX50tBwPmjBxg74PzV+VIQcP7oAcYOOH91vhQEnD96gLEDzl+dLwUB548eYOyA81fnS0HA+aMHGDvg/NX5UhBw/ugBxg44f3W+FAScP3qAsQPOX50vBQHnjx5g7IDzV+dLQcD5owcYO+D81flSEHD+6AHGDjh/db4UBJw/eoCxA85fnS8FAeePHmDsgPNX50tBwPmjBxg74PzV+VIQcP7oAcYOOH91vhQEnD96gLEDzl+dLwUB548eYOyA81fnS0HA+aMHGDvg/NX5UhBw/ugBxg44f3W+FAScP3qAsQPOX50vBQHnjx5g7IDzV+dLQcD5owcYO+D81flSEHD+6AHGDjh/db4UBJw/eoCxA85fnS8FAeePHmDsgPNX50tBwPmjBxg74PzV+VIQcP7oAcYOOH91vhQEnD96gLEDzl+dLwUB548eYOyA81fnS0HA+aMHGDvg/NX5UhBw/uD6RIl0f43VyvXS/Umkv5eOrz0/9PElKAghHigIIR4oCCEeKAghHigIIR4oCCEeKAghHigIIR4oCCEeKAghHigIIR4oCCEeKAghHigIIR4oCCEeKAghHigIIR4oCCEeKAghHigIIR4oCCEeKAghHigIIR4oCCEeKAghHigIIR4oCCEeKAghHigIIR4oCCEeKAghHigIIR4oCCEeKAghHigIIR4oCCEeKAghHigIIR4oCCEeKAghHigIIR4oCCEeKAghHigIIR4oCCEeKAghHigIIR4oCCEeKAghHigIIR4oCCEeKAghHigIIR4oCCEeKAghHigIIR4oCCEeKAghHigIIR4oCCEeKAghHigIIR4oCCEe/gfB55BbDSqYRAAAACV0RVh0ZGF0ZTpjcmVhdGUAMjAyMy0wNC0yNFQwMDowNzozNSswMDowMOLqKS0AAAAldEVYdGRhdGU6bW9kaWZ5ADIwMjMtMDQtMjRUMDA6MDc6MzUrMDA6MDCTt5GRAAAAAElFTkSuQmCC;" vertex="1" parent="1">
          <mxGeometry x="155" y="350" width="450" height="450" as="geometry" />
        </mxCell>
      </root>
    </mxGraphModel>
  </diagram>
</mxfile>
